<svg id="layer_1" enable-background="new 0 0 512 512" height="512" viewBox="0 0 512 512" width="512" xmlns="http://www.w3.org/2000/svg"><g><g><path d="m150.5869 341.3589c-47.0664 0-85.3584-38.292-85.3584-85.3589 4.6891-113.2407 166.0462-113.2067 170.7179.0006-.0001 47.0663-38.2921 85.3583-85.3595 85.3583zm0-155.7178c-38.7959 0-70.3584 31.563-70.3584 70.3589 3.8648 93.3411 136.8668 93.313 140.7179-.0005-.0001-38.7954-31.5636-70.3584-70.3595-70.3584z"/></g><g><path d="m361.4131 341.3589c-47.0674 0-85.3594-38.292-85.3594-85.3589 4.6889-113.2397 166.0459-113.2077 170.7179.0006-.0001 47.0663-38.2921 85.3583-85.3585 85.3583zm0-155.7178c-38.7959 0-70.3594 31.563-70.3594 70.3589 3.8652 93.3401 136.8672 93.3139 140.7179-.0005-.0001-38.7954-31.5626-70.3584-70.3585-70.3584z"/></g><g><path d="m221.584 231.499c-5.0993.0871-8.9266-5.3534-7.0233-10.1304 14.5716-38.2153 68.3389-38.3335 82.8778-.0023 1.4531 3.8779-.5127 8.2006-4.3916 9.6537-3.8789 1.4551-8.2012-.5122-9.6553-4.3916-4.3818-11.6943-15.6064-19.3677-27.9854-19.1348-11.835.2388-22.6045 7.9272-26.7969 19.1318-1.1279 3.0133-3.9872 4.8736-7.0253 4.8736z"/></g><g><path d="m451.667 231.4971h-19.2559c-4.1426 0-7.5-3.3579-7.5-7.5s3.3574-7.5 7.5-7.5h19.2559c9.923.3403 9.9304 14.6572 0 15z"/></g><g><path d="m79.5889 231.4971h-19.2559c-4.1426 0-7.5-3.3579-7.5-7.5s3.3574-7.5 7.5-7.5h19.2559c9.923.3403 9.9304 14.6572 0 15z"/></g><g><path d="m181.9517 223.6824c-2.7727 4.4376-8.6179 5.7873-13.0555 3.0146-10.3939-7.0828-.8778-22.3061 10.041-16.07 4.4376 2.7726 5.7873 8.6178 3.0145 13.0554z"/></g><g><path d="m108.3525 251.0996c-4.9042.0657-8.6698-4.9114-7.1981-9.6192 5.1718-17.5717 19.4384-31.1914 37.2323-35.5439 4.0244-.9863 8.083 1.4795 9.0674 5.5034.9844 4.0234-1.4795 8.083-5.5029 9.0669-12.6211 3.0869-22.7393 12.7461-26.4063 25.208-.9619 3.2671-3.9511 5.3848-7.1924 5.3848z"/></g><g><path d="m319.1777 251.0996c-4.9048.0664-8.6702-4.9114-7.1972-9.6197 5.1718-17.5717 19.4384-31.1909 37.2323-35.5434 4.0244-.9863 8.083 1.4795 9.0674 5.5034.9844 4.0234-1.4795 8.083-5.5029 9.0669-12.6211 3.0869-22.7393 12.7466-26.4082 25.2085-.9609 3.2666-3.9502 5.3843-7.1914 5.3843z"/></g></g></svg>