<svg id="Layer_1" height="512" viewBox="0 0 48 48" width="512" xmlns="http://www.w3.org/2000/svg" data-name="Layer 1"><path d="m42 12h-6.93a2 2 0 0 1 -1.664-.891l-2.219-3.328a4 4 0 0 0 -3.328-1.781h-7.718a4 4 0 0 0 -3.328 1.781l-2.219 3.328a2 2 0 0 1 -1.664.891h-.93v-1a1 1 0 0 0 -1-1h-3a1 1 0 0 0 -1 1v1h-1a4 4 0 0 0 -4 4v21a4 4 0 0 0 4 4h36a4 4 0 0 0 4-4v-21a4 4 0 0 0 -4-4zm-18 25a11.5 11.5 0 1 1 11.5-11.5 11.5 11.5 0 0 1 -11.5 11.5z"/><path d="m24 18a7.5 7.5 0 1 0 7.5 7.5 7.5 7.5 0 0 0 -7.5-7.5zm0 12a4.505 4.505 0 0 1 -4.5-4.5 1 1 0 0 1 2 0 2.5 2.5 0 0 0 2.5 2.5 1 1 0 0 1 0 2z"/></svg>