<?xml version="1.0" encoding="UTF-8" standalone="no"?>
<!DOCTYPE svg PUBLIC "-//W3C//DTD SVG 1.1//EN" "http://www.w3.org/Graphics/SVG/1.1/DTD/svg11.dtd">
<!-- Created with Vectornator (http://vectornator.io/) -->
<svg height="100%" stroke-miterlimit="10" style="fill-rule:nonzero;clip-rule:evenodd;stroke-linecap:round;stroke-linejoin:round;" version="1.1" viewBox="0 0 3370.82 2384.24" width="100%" xml:space="preserve" xmlns="http://www.w3.org/2000/svg" xmlns:vectornator="http://vectornator.io" xmlns:xlink="http://www.w3.org/1999/xlink">
<defs/>
<g id="Layer-1" vectornator:layerName="Layer 1">
<g opacity="1" vectornator:layerName="g">
<path d="M1188.05 1593.92C965.921 1593.92 785.205 1413.21 785.205 1191.08C807.335 656.645 1568.85 656.806 1590.9 1191.08C1590.9 1413.21 1410.18 1593.92 1188.05 1593.92Z" fill="#000000" fill-rule="nonzero" opacity="1" stroke="none" vectornator:layerName="path"/>
<path d="M2183.03 1593.92C1960.9 1593.92 1780.18 1413.21 1780.18 1191.08C1802.31 656.65 2563.82 656.801 2585.87 1191.08C2585.87 1413.21 2405.15 1593.92 2183.03 1593.92Z" fill="#000000" fill-rule="nonzero" opacity="1" stroke="none" vectornator:layerName="path"/>
<path d="M1523.11 1075.45C1499.05 1075.86 1480.98 1050.18 1489.97 1027.64C1558.74 847.282 1812.49 846.724 1881.1 1027.63C1887.96 1045.93 1878.68 1066.33 1860.38 1073.19C1842.07 1080.05 1821.67 1070.77 1814.81 1052.46C1794.13 997.269 1741.16 961.055 1682.73 962.154C1626.88 963.281 1576.05 999.566 1556.27 1052.45C1550.95 1066.67 1537.45 1075.45 1523.11 1075.45Z" fill="#000000" fill-rule="nonzero" opacity="1" stroke="none" vectornator:layerName="path"/>
<path d="M2608.97 1075.44L2518.1 1075.44C2498.55 1075.44 2482.7 1059.59 2482.7 1040.04C2482.7 1020.49 2498.55 1004.65 2518.1 1004.65L2608.97 1004.65C2655.8 1006.25 2655.84 1073.82 2608.97 1075.44Z" fill="#000000" fill-rule="nonzero" opacity="1" stroke="none" vectornator:layerName="path"/>
<path d="M852.978 1075.44L762.101 1075.44C742.55 1075.44 726.705 1059.59 726.705 1040.04C726.705 1020.49 742.55 1004.65 762.101 1004.65L852.978 1004.65C899.809 1006.25 899.844 1073.82 852.978 1075.44Z" fill="#000000" fill-rule="nonzero" opacity="1" stroke="none" vectornator:layerName="path"/>
<path d="M1336.07 1038.56C1322.99 1059.5 1295.4 1065.87 1274.46 1052.78C1225.4 1019.36 1270.31 947.511 1321.84 976.942C1342.79 990.027 1349.16 1017.61 1336.07 1038.56Z" fill="#000000" fill-rule="nonzero" opacity="1" stroke="none" vectornator:layerName="path"/>
<path d="M988.726 1167.95C965.58 1168.26 947.809 1144.77 954.755 1122.55C979.163 1039.62 1046.49 975.347 1130.47 954.805C1149.46 950.151 1168.62 961.788 1173.26 980.778C1177.91 999.766 1166.28 1018.93 1147.29 1023.57C1087.73 1038.14 1039.98 1083.72 1022.67 1142.54C1018.13 1157.95 1004.02 1167.95 988.726 1167.95Z" fill="#000000" fill-rule="nonzero" opacity="1" stroke="none" vectornator:layerName="path"/>
<path d="M1983.7 1167.95C1960.55 1168.26 1942.78 1144.77 1949.73 1122.55C1974.14 1039.62 2041.47 975.347 2125.45 954.805C2144.44 950.151 2163.6 961.788 2168.24 980.778C2172.89 999.766 2161.26 1018.93 2142.27 1023.57C2082.71 1038.14 2034.95 1083.73 2017.64 1142.54C2013.1 1157.95 1999 1167.95 1983.7 1167.95Z" fill="#000000" fill-rule="nonzero" opacity="1" stroke="none" vectornator:layerName="path"/>
</g>
</g>
</svg>
