<?xml version="1.0" encoding="UTF-8" standalone="no"?>
<!DOCTYPE svg PUBLIC "-//W3C//DTD SVG 1.1//EN" "http://www.w3.org/Graphics/SVG/1.1/DTD/svg11.dtd">
<!-- Created with Vectornator (http://vectornator.io/) -->
<svg height="841.0mm" stroke-miterlimit="10" style="fill-rule:nonzero;clip-rule:evenodd;stroke-linecap:round;stroke-linejoin:round;" version="1.1" viewBox="0 0 3370.82 2384.24" width="1189.0mm" xml:space="preserve" xmlns="http://www.w3.org/2000/svg" xmlns:xlink="http://www.w3.org/1999/xlink">
<defs/>
<g id="Layer-1">
<g opacity="1">
<path d="M1086.84 1701.11C864.716 1701.11 684 1520.39 684 1298.26C706.13 763.834 1467.64 763.994 1489.69 1298.27C1489.69 1520.39 1308.97 1701.11 1086.84 1701.11Z" fill="#000000" fill-rule="nonzero" opacity="1" stroke="none"/>
<path d="M2081.82 1701.11C1859.69 1701.11 1678.97 1520.39 1678.97 1298.26C1701.1 763.838 2462.62 763.989 2484.66 1298.27C2484.66 1520.39 2303.95 1701.11 2081.82 1701.11Z" fill="#000000" fill-rule="nonzero" opacity="1" stroke="none"/>
<path d="M1421.91 1182.63C1397.84 1183.05 1379.78 1157.37 1388.76 1134.82C1457.53 954.47 1711.28 953.912 1779.9 1134.81C1786.76 1153.12 1777.48 1173.52 1759.17 1180.37C1740.87 1187.24 1720.47 1177.96 1713.6 1159.65C1692.93 1104.46 1639.95 1068.24 1581.53 1069.34C1525.68 1070.47 1474.85 1106.75 1455.06 1159.63C1449.74 1173.85 1436.25 1182.63 1421.91 1182.63Z" fill="#000000" fill-rule="nonzero" opacity="1" stroke="none"/>
<path d="M2507.77 1182.63L2416.89 1182.63C2397.34 1182.63 2381.5 1166.78 2381.5 1147.23C2381.5 1127.68 2397.34 1111.83 2416.89 1111.83L2507.77 1111.83C2554.6 1113.44 2554.63 1181.01 2507.77 1182.63Z" fill="#000000" fill-rule="nonzero" opacity="1" stroke="none"/>
<path d="M751.773 1182.63L660.896 1182.63C641.345 1182.63 625.5 1166.78 625.5 1147.23C625.5 1127.68 641.345 1111.83 660.896 1111.83L751.773 1111.83C798.603 1113.44 798.638 1181.01 751.773 1182.63Z" fill="#000000" fill-rule="nonzero" opacity="1" stroke="none"/>
</g>
</g>
</svg>
